<?xml version="1.0" encoding="UTF-8" standalone="no"?>
<svg
   xmlns:dc="http://purl.org/dc/elements/1.1/"
   xmlns:cc="http://creativecommons.org/ns#"
   xmlns:rdf="http://www.w3.org/1999/02/22-rdf-syntax-ns#"
   xmlns:svg="http://www.w3.org/2000/svg"
   xmlns="http://www.w3.org/2000/svg"
   xmlns:sodipodi="http://sodipodi.sourceforge.net/DTD/sodipodi-0.dtd"
   xmlns:inkscape="http://www.inkscape.org/namespaces/inkscape"
   version="1.1"
   x="0px"
   y="0px"
   viewBox="0 0 90 90"
   enable-background="new 0 0 100 100"
   xml:space="preserve"
   id="svg10"
   sodipodi:docname="noun_dots.svg"
   inkscape:version="0.92.2 5c3e80d, 2017-08-06"
   width="90"
   height="90"><metadata
     id="metadata16"><rdf:RDF><cc:Work
         rdf:about=""><dc:format>image/svg+xml</dc:format><dc:type
           rdf:resource="http://purl.org/dc/dcmitype/StillImage" /><dc:title /></cc:Work></rdf:RDF></metadata><defs
     id="defs14" /><sodipodi:namedview
     pagecolor="#ffffff"
     bordercolor="#666666"
     borderopacity="1"
     objecttolerance="10"
     gridtolerance="10"
     guidetolerance="10"
     inkscape:pageopacity="0"
     inkscape:pageshadow="2"
     inkscape:window-width="843"
     inkscape:window-height="756"
     id="namedview12"
     showgrid="false"
     inkscape:zoom="1.888"
     inkscape:cx="86.408542"
     inkscape:cy="54.014841"
     inkscape:window-x="0"
     inkscape:window-y="0"
     inkscape:window-maximized="0"
     inkscape:current-layer="svg10"
     fit-margin-top="0"
     fit-margin-left="0"
     fit-margin-right="0"
     fit-margin-bottom="0" /><path
     d="M 45,0 C 20.2,0 0,20.2 0,45 0,69.8 20.2,90 45,90 69.8,90 90,69.8 90,45 90,20.2 69.8,0 45,0 Z m 0,83.8 C 23.6,83.8 6.2,66.4 6.2,45 6.2,23.6 23.6,6.2 45,6.2 66.4,6.2 83.8,23.6 83.8,45 83.8,66.4 66.4,83.8 45,83.8 Z"
     id="path2"
     inkscape:connector-curvature="0"
     style="fill:#ffffff" /><circle
     style="fill:#ffffff;stroke-width:1.63134539"
     id="path8"
     cx="27"
     cy="-46.196026"
     r="6.04842"
     transform="scale(1,-1)" /><circle
     transform="scale(1,-1)"
     r="6.04842"
     cy="-46.196026"
     cx="45"
     id="circle50"
     style="fill:#ffffff;stroke-width:1.63134539" /><circle
     style="fill:#ffffff;stroke-width:1.63134539"
     id="circle52"
     cx="63"
     cy="-46.196026"
     r="6.04842"
     transform="scale(1,-1)" /></svg>